<svg width="38" height="39" viewBox="0 0 38 39" fill="none" xmlns="http://www.w3.org/2000/svg">
<path d="M18.6723 38.0652C8.43634 38.0652 0.107788 29.7366 0.107788 19.4993C0.107788 9.26205 8.43634 0.934814 18.6723 0.934814C28.9083 0.934814 37.2368 9.26336 37.2368 19.5006C37.2368 29.7379 28.9083 38.0665 18.6723 38.0665V38.0652ZM18.6723 3.50957C9.85508 3.50957 2.68254 10.6821 2.68254 19.4993C2.68254 28.3166 9.85508 35.4891 18.6723 35.4891C27.4895 35.4891 34.6621 28.3166 34.6621 19.4993C34.6621 10.6821 27.4895 3.50957 18.6723 3.50957Z" fill="#FAFAFF"/>
<path d="M18.6722 38.1729C8.37715 38.1729 0 29.7957 0 19.4993C0 9.20293 8.37715 0.827087 18.6722 0.827087C28.9673 0.827087 37.3445 9.20424 37.3445 19.4993C37.3445 29.7944 28.9673 38.1716 18.6722 38.1716V38.1729ZM18.6722 1.04253C8.49538 1.04253 0.215439 9.32247 0.215439 19.4993C0.215439 29.6762 8.49538 37.9574 18.6736 37.9574C28.8517 37.9574 37.1317 29.6775 37.1317 19.4993C37.1317 9.32116 28.8504 1.04253 18.6722 1.04253ZM18.6722 35.5981C9.7959 35.5981 2.57476 28.377 2.57476 19.5006C2.57476 10.6243 9.79721 3.40184 18.6722 3.40184C27.5473 3.40184 34.7697 10.623 34.7697 19.4993C34.7697 28.3757 27.5486 35.5968 18.6722 35.5968V35.5981ZM18.6722 3.6186C9.91413 3.6186 2.7902 10.7438 2.7902 19.5006C2.7902 28.2574 9.91544 35.3827 18.6722 35.3827C27.429 35.3827 34.5543 28.2574 34.5543 19.5006C34.5543 10.7438 27.4304 3.61728 18.6722 3.61728V3.6186Z" fill="#FAFAFF"/>
<path d="M27.8941 15.4165V9.94641H20.623V15.4178C19.7994 16.2756 19.2463 17.425 19.1044 18.7072C19.0821 18.92 19.069 19.1354 19.069 19.3535C19.069 22.4011 21.3928 24.8708 24.2592 24.8708C26.2757 24.8708 28.0228 23.6491 28.8819 21.8652C28.8819 21.8652 28.8819 21.8643 28.8819 21.8625C28.9043 21.8153 28.9266 21.7693 28.9476 21.722C29.2695 21.0152 29.4494 20.2257 29.4494 19.3929V19.3522C29.4494 17.8099 28.853 16.4148 27.8941 15.4138V15.4165ZM22.3268 11.8131H26.1903L26.1955 14.2342C25.6779 14.0122 25.1183 13.8769 24.5311 13.8453C24.4418 13.8401 24.3512 13.8374 24.2592 13.8374C23.5761 13.8374 22.9232 13.978 22.3268 14.2329V11.8131ZM26.5463 21.7496C26.4083 21.8928 26.2586 22.0189 26.1023 22.1318C25.586 22.5023 24.9541 22.7217 24.2815 22.7217C22.7354 22.7217 21.4427 21.5801 21.1432 20.0681C21.1038 19.8763 21.0841 19.6845 21.0802 19.4835V19.477C21.0802 19.4507 21.0802 19.4244 21.0802 19.3968C21.0802 18.9134 21.1774 18.4497 21.3665 18.0359C21.4848 17.7587 21.6411 17.4973 21.8303 17.27C22.0273 17.0257 22.248 16.8181 22.4963 16.6434C22.5817 16.5869 22.6657 16.5317 22.7577 16.4805C22.8168 16.449 22.8746 16.4175 22.9337 16.3872C23.3515 16.1744 23.8218 16.0615 24.3104 16.0615H24.3275C24.3433 16.0615 24.3604 16.0615 24.3748 16.0667C25.008 16.0746 25.5952 16.2795 26.0904 16.6184C26.9522 17.2148 27.5197 18.2303 27.5197 19.3784C27.5197 20.3137 27.1479 21.1545 26.5489 21.7496H26.5463Z" fill="#FAFAFF"/>
<path d="M24.2592 24.9772C21.3403 24.9772 18.9652 22.455 18.9652 19.3561C18.9652 19.1407 18.977 18.92 19.0007 18.698C19.1386 17.4447 19.6772 16.2677 20.5179 15.3784V9.84396H27.9966V15.3757C29.0002 16.4385 29.5519 17.8507 29.5519 19.3561V19.3968C29.5519 20.2257 29.3798 21.0244 29.0409 21.7693C29.0238 21.8087 29.0041 21.8494 28.9844 21.8901V21.9059L28.9673 21.9256C28.0544 23.8081 26.2507 24.9772 24.2566 24.9772H24.2592ZM20.7268 10.0515V15.4611L20.6979 15.4913C19.8716 16.3518 19.3422 17.4986 19.2082 18.7203C19.1846 18.9344 19.1741 19.1486 19.1741 19.3561C19.1741 22.3407 21.4559 24.7697 24.2605 24.7697C26.1719 24.7697 27.902 23.6478 28.7808 21.8415L28.7913 21.8192L28.7966 21.8087C28.8176 21.7667 28.836 21.7246 28.8557 21.6826C29.1828 20.964 29.3483 20.1955 29.3483 19.3955V19.3548C29.3483 17.8888 28.8058 16.5147 27.8218 15.4874L27.7929 15.4572V10.0502H20.7294L20.7268 10.0515ZM24.2802 22.8242C22.717 22.8242 21.3547 21.6734 21.0395 20.0878C21.0001 19.896 20.979 19.699 20.9738 19.4848C20.9738 19.4533 20.9738 19.4244 20.9738 19.3968C20.9738 18.8963 21.0736 18.4234 21.2694 17.9925C21.3955 17.6996 21.557 17.4329 21.7475 17.203C21.9472 16.9548 22.1718 16.7433 22.4332 16.558L22.4503 16.5462C22.5305 16.4937 22.6132 16.4385 22.7039 16.3886C22.7603 16.3584 22.8129 16.3308 22.8668 16.3019L22.8812 16.294C23.3147 16.0733 23.8073 15.9564 24.3078 15.9564H24.3249C24.3472 15.9564 24.3683 15.9577 24.3853 15.9616C25.0067 15.9708 25.6149 16.1679 26.1469 16.5318C27.0704 17.1702 27.6209 18.2343 27.6209 19.3784C27.6209 20.3125 27.2649 21.1808 26.6199 21.8231C26.4872 21.9611 26.3374 22.0898 26.1627 22.2159C25.607 22.614 24.9568 22.8255 24.2802 22.8255V22.8242ZM24.3065 16.1639C23.8389 16.1639 23.3791 16.273 22.9771 16.4779L22.964 16.4845C22.9101 16.5134 22.8562 16.5423 22.8024 16.5699C22.7223 16.6145 22.6461 16.6658 22.5646 16.7183L22.5502 16.7275C22.3085 16.8996 22.097 17.0979 21.9078 17.3331C21.7278 17.5485 21.5767 17.7981 21.4585 18.074C21.2746 18.4799 21.1813 18.9239 21.1813 19.3942C21.1813 19.4205 21.1813 19.4454 21.1813 19.4704C21.1853 19.6793 21.205 19.8645 21.2431 20.0445C21.5387 21.5341 22.8168 22.6153 24.2802 22.6153C24.9121 22.6153 25.5216 22.4182 26.0405 22.0452C26.2061 21.9256 26.3466 21.8061 26.4701 21.676H26.4714C27.0783 21.0717 27.412 20.256 27.412 19.3771C27.412 18.3026 26.8944 17.3016 26.0274 16.7025C25.5269 16.3597 24.9528 16.1758 24.3696 16.1692L24.342 16.1653C24.342 16.1653 24.3367 16.1653 24.3223 16.1653H24.3052L24.3065 16.1639ZM26.298 14.3918L26.1522 14.3301C25.6333 14.1081 25.0855 13.9807 24.5233 13.9491C24.4418 13.9439 24.3551 13.9426 24.2579 13.9426C23.6037 13.9426 22.9679 14.0726 22.3663 14.3301L22.2218 14.3918V11.7107H26.2928L26.298 14.3931V14.3918ZM24.2579 13.7337C24.3591 13.7337 24.4497 13.7363 24.5351 13.7416C25.0697 13.7705 25.5913 13.8848 26.0891 14.0792L26.0839 11.9169H22.4293V14.0779C23.0139 13.8493 23.6274 13.7337 24.2579 13.7337Z" fill="#FAFAFF"/>
<path d="M15.3855 19.6399L15.2659 15.4139H8.01459L8.10654 24.5924C8.10654 27.5849 10.4251 30.0243 13.2758 30.0243C16.1264 30.0243 18.445 27.5849 18.445 24.5924C18.445 22.3881 17.1904 20.4885 15.3855 19.6399ZM9.99426 17.2753H13.5267V19.1696C13.4452 19.1617 13.3638 19.1617 13.2771 19.1617C12.0304 19.1617 10.8849 19.6333 9.99426 20.4084V17.274V17.2753ZM16.4968 24.9208C16.4798 25.0915 16.4509 25.2584 16.4088 25.4186C16.3957 25.4712 16.3812 25.5264 16.3642 25.5776C16.3405 25.6564 16.3129 25.7352 16.2827 25.8101C16.2341 25.9375 16.1763 26.061 16.1119 26.1793C16.0357 26.3211 15.949 26.4564 15.8545 26.5852C15.7586 26.7126 15.6535 26.8335 15.5418 26.9451C15.4735 27.0174 15.4012 27.0844 15.3264 27.1474C15.2528 27.2105 15.1753 27.2696 15.0978 27.3261C14.5815 27.6965 13.9497 27.9159 13.2771 27.9159C11.7309 27.9159 10.4383 26.7743 10.1388 25.2623C10.0994 25.0705 10.0796 24.8787 10.0757 24.6777V24.6712C10.0757 24.6449 10.0757 24.6186 10.0757 24.591C10.0757 24.1983 10.1401 23.8186 10.2662 23.4679C10.2938 23.3864 10.3266 23.3076 10.3621 23.2301C10.4067 23.1263 10.4567 23.0239 10.5105 22.9267C10.6025 22.7624 10.7076 22.6061 10.8258 22.4642C10.8994 22.3723 10.9769 22.2869 11.0583 22.2055C11.0846 22.1779 11.1122 22.1516 11.1411 22.1253C11.2514 22.0202 11.3683 21.9243 11.4931 21.8376C11.5785 21.7811 11.6626 21.7247 11.7546 21.6747C11.8137 21.6432 11.8715 21.6117 11.9306 21.5815C12.3483 21.3687 12.8186 21.2557 13.3073 21.2557H13.3244C13.3401 21.2557 13.3572 21.2557 13.3717 21.2609C14.0048 21.2688 14.592 21.4738 15.0873 21.8127C15.2489 21.9243 15.3999 22.0504 15.5392 22.1897C15.6088 22.258 15.6758 22.3316 15.7389 22.4078C16.2249 22.9897 16.5179 23.7464 16.5179 24.5727C16.5179 24.6896 16.5113 24.8052 16.5008 24.9195L16.4968 24.9208Z" fill="#FAFAFF"/>
<path d="M13.2758 30.1294C10.3686 30.1294 8.00275 27.6453 8.00275 24.5937L7.90948 15.3114H15.3671L15.4879 19.5755C17.3494 20.4793 18.5501 22.4419 18.5501 24.595C18.5501 27.6479 16.1842 30.1307 13.2771 30.1307L13.2758 30.1294ZM8.11967 15.519L8.21162 24.5923C8.21162 27.531 10.4842 29.9218 13.2771 29.9218C16.0699 29.9218 18.3425 27.531 18.3425 24.5937C18.3425 22.4984 17.1655 20.591 15.3421 19.7345L15.2843 19.7069L15.1661 15.5176H8.12098L8.11967 15.519ZM13.2758 28.0223C11.7125 28.0223 10.3502 26.8715 10.035 25.286C9.99556 25.0942 9.97454 24.8971 9.96929 24.683C9.96929 24.6515 9.96929 24.6226 9.96929 24.595C9.96929 24.1891 10.035 23.8002 10.1663 23.4363C10.1939 23.3575 10.2255 23.2774 10.2649 23.1907C10.3095 23.0869 10.3608 22.9805 10.4172 22.8793C10.5145 22.7033 10.6248 22.543 10.7443 22.4012C10.8166 22.3118 10.8941 22.2251 10.9821 22.1358C11.0084 22.1082 11.0386 22.0793 11.0675 22.0531C11.1778 21.948 11.3 21.8481 11.4301 21.7562L11.4485 21.743C11.5286 21.6905 11.6114 21.6366 11.7007 21.5867C11.7624 21.5539 11.8202 21.5237 11.878 21.4921C12.3115 21.2701 12.8041 21.1545 13.3047 21.1545H13.3217C13.3441 21.1545 13.3638 21.1558 13.3822 21.1598C14.0035 21.169 14.6117 21.366 15.1438 21.7299C15.3106 21.8455 15.4682 21.9769 15.6101 22.1201C15.6771 22.1857 15.7467 22.2619 15.8164 22.3447C16.3339 22.966 16.619 23.7582 16.619 24.5753C16.619 24.6922 16.6124 24.813 16.6006 24.9313C16.5835 25.1073 16.5533 25.2807 16.51 25.4449C16.4955 25.5001 16.4811 25.5553 16.464 25.6091C16.439 25.6906 16.4114 25.772 16.3799 25.8482C16.3313 25.9743 16.2722 26.103 16.2039 26.2292C16.1251 26.3763 16.0357 26.5168 15.9372 26.6469C15.8387 26.7783 15.7297 26.9031 15.6141 27.0187C15.5497 27.087 15.4761 27.1553 15.3934 27.2275C15.3237 27.288 15.2462 27.3471 15.1582 27.4114C14.6025 27.8095 13.9523 28.021 13.2758 28.021V28.0223ZM13.302 21.3621C12.8357 21.3621 12.3759 21.4711 11.9726 21.676C11.9161 21.7063 11.857 21.7378 11.7979 21.7693C11.7178 21.814 11.6416 21.8639 11.5614 21.9164L11.5457 21.9269C11.4274 22.011 11.3118 22.1043 11.2081 22.2041C11.1805 22.2291 11.1542 22.2554 11.1292 22.2816C11.0452 22.3657 10.9716 22.4485 10.9033 22.5339C10.7916 22.6678 10.6892 22.8176 10.5985 22.9805C10.546 23.0751 10.4974 23.1749 10.454 23.2748C10.4159 23.3575 10.387 23.4324 10.3608 23.506C10.2386 23.8475 10.1755 24.214 10.1755 24.595C10.1755 24.6212 10.1755 24.6462 10.1755 24.6712C10.1795 24.88 10.1992 25.0653 10.2373 25.2452C10.5328 26.7349 11.811 27.816 13.2744 27.816C13.9063 27.816 14.5158 27.619 15.0347 27.2459C15.1188 27.1855 15.1911 27.129 15.2567 27.0725C15.3356 27.0055 15.4026 26.9425 15.4643 26.8768C15.576 26.7664 15.6771 26.6495 15.7691 26.526C15.8597 26.4039 15.9438 26.2725 16.0187 26.1333C16.083 26.015 16.1382 25.8955 16.1842 25.7759C16.2131 25.7037 16.2393 25.6275 16.263 25.55C16.2788 25.4988 16.2932 25.4462 16.3063 25.395C16.3458 25.24 16.3747 25.0784 16.3904 24.9129C16.4022 24.7999 16.4075 24.6869 16.4075 24.5766C16.4075 23.8081 16.1395 23.0619 15.6521 22.4787C15.5865 22.3999 15.5221 22.3289 15.459 22.2672C15.325 22.1319 15.1779 22.0097 15.0216 21.9007C14.5211 21.5578 13.947 21.3739 13.3638 21.3673L13.3362 21.3634C13.3362 21.3634 13.3309 21.3634 13.3165 21.3634H13.2994L13.302 21.3621ZM9.88916 20.6383V17.1715H13.6291V19.2839L13.5161 19.2734C13.44 19.2668 13.3598 19.2668 13.2758 19.2668C12.1079 19.2668 10.9664 19.7003 10.0612 20.4885L9.88916 20.6383ZM10.0967 17.3804V20.1877C11.0097 19.4586 12.1302 19.0592 13.2758 19.0592C13.3257 19.0592 13.3743 19.0592 13.4216 19.0606V17.3804H10.098H10.0967Z" fill="#FAFAFF"/>
</svg>
