<svg width="60" height="60" viewBox="0 0 60 60" fill="none" xmlns="http://www.w3.org/2000/svg">
<g filter="url(#filter0_i_194_438)">
<path d="M30 30C34.6825 30 38.925 31.55 42.0375 33.7175C44.995 35.78 47.5 38.845 47.5 42.1425C47.5 43.9525 46.7275 45.4525 45.51 46.5675C44.365 47.62 42.87 48.3025 41.33 48.7675C38.2525 49.7 34.2 50 30 50C25.8 50 21.7475 49.7 18.67 48.7675C17.13 48.3025 15.635 47.62 14.4875 46.5675C13.275 45.455 12.5 43.955 12.5 42.145C12.5 38.8475 15.005 35.7825 17.9625 33.72C21.075 31.55 25.3175 30 30 30ZM47.5 32.5C50.11 32.5 52.48 33.3625 54.2325 34.5825C55.8325 35.7 57.5 37.5575 57.5 39.8225C57.5 41.115 56.9375 42.1875 56.1 42.955C55.335 43.6575 54.39 44.07 53.5275 44.33C52.3525 44.685 50.965 44.8675 49.525 44.9475C49.83 44.085 50 43.1475 50 42.1425C50 38.305 47.6025 35.045 44.92 32.7825C45.7673 32.5953 46.6323 32.5006 47.5 32.5ZM12.5 32.5C13.395 32.5033 14.255 32.5975 15.08 32.7825C12.4 35.045 10 38.305 10 42.1425C10 43.1475 10.17 44.085 10.475 44.9475C9.035 44.8675 7.65 44.685 6.4725 44.33C5.61 44.07 4.665 43.6575 3.8975 42.955C3.45757 42.5609 3.10571 42.0784 2.8649 41.5391C2.6241 40.9997 2.49976 40.4157 2.5 39.825C2.5 37.5625 4.165 35.7025 5.7675 34.585C7.74965 33.2261 10.0968 32.4992 12.5 32.5ZM46.25 17.5C47.9076 17.5 49.4973 18.1585 50.6694 19.3306C51.8415 20.5027 52.5 22.0924 52.5 23.75C52.5 25.4076 51.8415 26.9973 50.6694 28.1694C49.4973 29.3415 47.9076 30 46.25 30C44.5924 30 43.0027 29.3415 41.8306 28.1694C40.6585 26.9973 40 25.4076 40 23.75C40 22.0924 40.6585 20.5027 41.8306 19.3306C43.0027 18.1585 44.5924 17.5 46.25 17.5ZM13.75 17.5C15.4076 17.5 16.9973 18.1585 18.1694 19.3306C19.3415 20.5027 20 22.0924 20 23.75C20 25.4076 19.3415 26.9973 18.1694 28.1694C16.9973 29.3415 15.4076 30 13.75 30C12.0924 30 10.5027 29.3415 9.33058 28.1694C8.15848 26.9973 7.5 25.4076 7.5 23.75C7.5 22.0924 8.15848 20.5027 9.33058 19.3306C10.5027 18.1585 12.0924 17.5 13.75 17.5ZM30 7.5C32.6522 7.5 35.1957 8.55357 37.0711 10.4289C38.9464 12.3043 40 14.8478 40 17.5C40 20.1522 38.9464 22.6957 37.0711 24.5711C35.1957 26.4464 32.6522 27.5 30 27.5C27.3478 27.5 24.8043 26.4464 22.9289 24.5711C21.0536 22.6957 20 20.1522 20 17.5C20 14.8478 21.0536 12.3043 22.9289 10.4289C24.8043 8.55357 27.3478 7.5 30 7.5Z" fill="#FA0808"/>
</g>
<defs>
<filter id="filter0_i_194_438" x="0" y="0" width="60" height="64" filterUnits="userSpaceOnUse" color-interpolation-filters="sRGB">
<feFlood flood-opacity="0" result="BackgroundImageFix"/>
<feBlend mode="normal" in="SourceGraphic" in2="BackgroundImageFix" result="shape"/>
<feColorMatrix in="SourceAlpha" type="matrix" values="0 0 0 0 0 0 0 0 0 0 0 0 0 0 0 0 0 0 127 0" result="hardAlpha"/>
<feOffset dy="4"/>
<feGaussianBlur stdDeviation="8"/>
<feComposite in2="hardAlpha" operator="arithmetic" k2="-1" k3="1"/>
<feColorMatrix type="matrix" values="0 0 0 0 0 0 0 0 0 0 0 0 0 0 0 0 0 0 0.1 0"/>
<feBlend mode="normal" in2="shape" result="effect1_innerShadow_194_438"/>
</filter>
</defs>
</svg>
