<svg width="27" height="26" viewBox="0 0 27 26" fill="none" xmlns="http://www.w3.org/2000/svg">
<g id="formkit:facebook">
<path id="Vector" d="M13.5862 1.92871C7.37668 1.92871 2.35449 6.98299 2.35449 13.2246C2.35449 18.8565 6.4621 23.5418 11.8373 24.3922V16.4979H8.98121V13.2246H11.8373V10.7376C11.8373 7.89757 13.522 6.34118 16.0732 6.34118C17.3087 6.34118 18.5924 6.56581 18.5924 6.56581V9.34165H17.1804C15.7844 9.34165 15.3512 10.2081 15.3512 11.1066V13.2246H18.464L17.9666 16.4979H15.3512V24.3922C20.7264 23.5418 24.834 18.8726 24.834 13.2246C24.834 6.98299 19.8118 1.92871 13.6023 1.92871H13.5862Z" fill="#FFD800"/>
</g>
</svg>
