<svg width="24" height="24" viewBox="0 0 24 24" fill="none" xmlns="http://www.w3.org/2000/svg">
<path id="Vector" d="M6.95785 1.24923H16.6621C20.0044 1.24923 22.7208 3.96557 22.7208 7.30795V17.0122C22.7208 18.619 22.0825 20.1601 20.9462 21.2963C19.81 22.4326 18.2689 23.0709 16.6621 23.0709H6.95785C3.61547 23.0709 0.899137 20.3545 0.899137 17.0122V7.30795C0.899137 5.70108 1.53746 4.16002 2.67369 3.02379C3.80992 1.88756 5.35098 1.24923 6.95785 1.24923ZM6.7268 2.27614C5.45356 2.27614 4.23247 2.78193 3.33215 3.68225C2.43183 4.58256 1.92604 5.80366 1.92604 7.0769V17.2432C1.92604 19.8967 4.07336 22.044 6.7268 22.044H16.8931C18.1664 22.044 19.3875 21.5382 20.2878 20.6379C21.1881 19.7376 21.6939 18.5165 21.6939 17.2432V7.0769C21.6939 4.42346 19.5466 2.27614 16.8931 2.27614H6.7268ZM17.8751 5.29266C18.0879 5.29266 18.2919 5.37718 18.4424 5.52764C18.5928 5.67809 18.6774 5.88215 18.6774 6.09492C18.6774 6.3077 18.5928 6.51176 18.4424 6.66221C18.2919 6.81266 18.0879 6.89719 17.8751 6.89719C17.6623 6.89719 17.4583 6.81266 17.3078 6.66221C17.1573 6.51176 17.0728 6.3077 17.0728 6.09492C17.0728 5.88215 17.1573 5.67809 17.3078 5.52763C17.4583 5.37718 17.6623 5.29266 17.8751 5.29266ZM11.81 7.02555C13.1717 7.02555 14.4777 7.56651 15.4406 8.52941C16.4035 9.49232 16.9445 10.7983 16.9445 12.1601C16.9445 13.5218 16.4035 14.8278 15.4406 15.7907C14.4777 16.7536 13.1717 17.2946 11.81 17.2946C10.4482 17.2946 9.14222 16.7536 8.17932 15.7907C7.21641 14.8278 6.67545 13.5218 6.67545 12.1601C6.67545 10.7983 7.21641 9.49232 8.17932 8.52941C9.14222 7.56651 10.4482 7.02555 11.81 7.02555ZM11.81 8.05245C10.7206 8.05245 9.67577 8.48522 8.90544 9.25554C8.13512 10.0259 7.70235 11.0707 7.70235 12.1601C7.70235 13.2495 8.13512 14.2942 8.90544 15.0646C9.67577 15.8349 10.7206 16.2677 11.81 16.2677C12.8994 16.2677 13.9441 15.8349 14.7145 15.0646C15.4848 14.2942 15.9176 13.2495 15.9176 12.1601C15.9176 11.0707 15.4848 10.0259 14.7145 9.25554C13.9441 8.48522 12.8994 8.05245 11.81 8.05245Z" stroke="#FFD800" stroke-width="1.28363"/>
</svg>
