<svg width="29" height="29" viewBox="0 0 29 29" fill="none" xmlns="http://www.w3.org/2000/svg">
<g id="mdi:linkedin">
<path id="Vector" d="M22.5545 3.57031C23.1787 3.57031 23.7773 3.81825 24.2186 4.25958C24.6599 4.70091 24.9079 5.29949 24.9079 5.92363V22.3968C24.9079 23.021 24.6599 23.6195 24.2186 24.0609C23.7773 24.5022 23.1787 24.7501 22.5545 24.7501H6.08134C5.4572 24.7501 4.85863 24.5022 4.4173 24.0609C3.97597 23.6195 3.72803 23.021 3.72803 22.3968V5.92363C3.72803 5.29949 3.97597 4.70091 4.4173 4.25958C4.85863 3.81825 5.4572 3.57031 6.08134 3.57031H22.5545ZM21.9662 21.8085V15.5722C21.9662 14.5549 21.5621 13.5792 20.8427 12.8598C20.1233 12.1405 19.1477 11.7363 18.1303 11.7363C17.1302 11.7363 15.9653 12.3482 15.4005 13.266V11.9599H12.1176V21.8085H15.4005V16.0076C15.4005 15.1016 16.13 14.3603 17.036 14.3603C17.4729 14.3603 17.8919 14.5338 18.2009 14.8427C18.5098 15.1517 18.6833 15.5707 18.6833 16.0076V21.8085H21.9662ZM8.29346 10.1125C8.81773 10.1125 9.32054 9.90426 9.69126 9.53354C10.062 9.16282 10.2702 8.66002 10.2702 8.13574C10.2702 7.04145 9.38775 6.14719 8.29346 6.14719C7.76606 6.14719 7.26027 6.3567 6.88734 6.72962C6.51441 7.10255 6.30491 7.60835 6.30491 8.13574C6.30491 9.23003 7.19917 10.1125 8.29346 10.1125ZM9.92901 21.8085V11.9599H6.66967V21.8085H9.92901Z" fill="#FFD800"/>
</g>
</svg>
