<svg width="65" height="66" viewBox="0 0 65 66" fill="none" xmlns="http://www.w3.org/2000/svg">
<circle cx="32.3529" cy="33" r="32.3529" fill="#FA0808"/>
<path d="M10.2656 14.9696C9.93775 15.0813 9.74717 15.4063 9.80766 15.7473C10.4136 19.163 13.631 36.6765 16.9236 42.6529C20.1686 48.5428 33.273 50.5719 33.7863 50.3139C34.2996 50.0559 38.4601 28.4329 49.4598 42.6529C50.7003 44.2565 54.3346 19.7349 54.92 15.7183C54.9685 15.3855 54.7811 15.0834 54.4638 14.972C52.2651 14.2002 44.0559 11.5598 44.0559 15.166C44.0559 19.3299 43.483 30.9525 41.3258 33.4051C39.1685 35.8578 36.2426 37.2357 33.1917 37.2357C30.1409 37.2357 27.215 35.8578 25.0577 33.4051C22.9004 30.9525 21.5287 19.525 21.5287 15.166C21.5287 11.3804 12.6112 14.1703 10.2656 14.9696Z" fill="#F5FFFF"/>
<path d="M42.5103 38.6257C40.3061 38.6257 38.4998 40.4952 38.4998 42.7769C38.4998 43.661 38.7718 44.4826 39.2322 45.1579L42.0209 50.1623C42.4114 50.6919 42.671 50.5913 42.9958 50.1343L46.0717 44.7008C46.1337 44.5841 46.1825 44.4598 46.225 44.3329C46.4201 43.8391 46.5205 43.3106 46.5205 42.7769C46.5206 40.4952 44.7148 38.6257 42.5103 38.6257ZM42.5103 40.5707C43.6974 40.5707 44.6413 41.5483 44.6413 42.7769C44.6413 44.0055 43.6974 44.9827 42.5103 44.9827C41.3234 44.9827 40.3791 44.0057 40.3791 42.777C40.3791 41.5483 41.3234 40.5709 42.5102 40.5709" fill="#F5FFFF"/>
<path d="M45.0597 45.8555L45.0533 45.8732L45.0589 45.8571L45.0597 45.8555ZM40.3541 48.675C38.4499 48.9543 37.118 49.6225 37.118 50.606C37.118 51.9309 39.3434 53.0049 42.5102 53.0049C45.677 53.0049 47.9023 51.9309 47.9023 50.606C47.9023 49.6225 46.5706 48.9543 44.6665 48.675L44.4027 49.1412C45.8378 49.3479 46.8239 49.7823 46.8239 50.2863C46.8239 50.9929 44.8926 51.5657 42.5102 51.5657C40.1278 51.5657 38.1965 50.9929 38.1965 50.2863C38.1963 49.7839 39.1759 49.35 40.6155 49.1425L40.3541 48.675Z" fill="#F5FFFF"/>
</svg>
