<svg width="60" height="60" viewBox="0 0 60 60" fill="none" xmlns="http://www.w3.org/2000/svg">
<g filter="url(#filter0_i_194_431)">
<path d="M40.9982 30.0469C40.9982 32.9662 39.8384 35.766 37.7741 37.8304C35.7098 39.8947 32.91 41.0544 29.9907 41.0544C27.0713 41.0544 24.2715 39.8947 22.2072 37.8304C20.1429 35.766 18.9832 32.9662 18.9832 30.0469C18.9832 27.1275 20.1429 24.3277 22.2072 22.2634C24.2715 20.1991 27.0713 19.0394 29.9907 19.0394C32.91 19.0394 35.7098 20.1991 37.7741 22.2634C39.8384 24.3277 40.9982 27.1275 40.9982 30.0469ZM49.6157 45.5469C53.5888 40.5435 55.4956 34.2089 54.9446 27.8436C54.3935 21.4784 51.4263 15.5657 46.6523 11.3197C41.8784 7.07363 35.6599 4.81647 29.2739 5.01168C22.8878 5.20689 16.8189 7.83966 12.3132 12.3694C7.75694 16.9303 5.13877 23.0751 5.00536 29.5205C4.87195 35.9659 7.2336 42.2138 11.5972 46.9593C15.9608 51.7049 21.9889 54.5814 28.4229 54.9881C34.8569 55.3948 41.1993 53.3002 46.1257 49.1419L39.3757 42.3919C36.2755 44.7465 32.4029 45.8483 28.5275 45.4783C24.6522 45.1083 21.058 43.2936 18.4594 40.3949C15.8608 37.4963 14.4481 33.7259 14.5022 29.8333C14.5562 25.9408 16.073 22.2111 18.7511 19.3856C21.4291 16.5602 25.0723 14.846 28.9564 14.5837C32.8405 14.3214 36.681 15.5303 39.7146 17.97C42.7482 20.4097 44.7527 23.9017 45.3296 27.7516C45.9064 31.6016 45.0135 35.5277 42.8282 38.7494L49.6157 45.5469Z" fill="#FA0808"/>
</g>
<defs>
<filter id="filter0_i_194_431" x="0" y="0" width="60" height="64" filterUnits="userSpaceOnUse" color-interpolation-filters="sRGB">
<feFlood flood-opacity="0" result="BackgroundImageFix"/>
<feBlend mode="normal" in="SourceGraphic" in2="BackgroundImageFix" result="shape"/>
<feColorMatrix in="SourceAlpha" type="matrix" values="0 0 0 0 0 0 0 0 0 0 0 0 0 0 0 0 0 0 127 0" result="hardAlpha"/>
<feOffset dy="4"/>
<feGaussianBlur stdDeviation="8"/>
<feComposite in2="hardAlpha" operator="arithmetic" k2="-1" k3="1"/>
<feColorMatrix type="matrix" values="0 0 0 0 0 0 0 0 0 0 0 0 0 0 0 0 0 0 0.1 0"/>
<feBlend mode="normal" in2="shape" result="effect1_innerShadow_194_431"/>
</filter>
</defs>
</svg>
