<svg width="60" height="40" viewBox="0 0 60 40" fill="none" xmlns="http://www.w3.org/2000/svg">
<g clip-path="url(#clip0_194_408)">
<g filter="url(#filter0_i_194_408)">
<path d="M48.7466 26.2456C48.7466 28.7317 47.4372 29.95 44.9973 29.9931V29.9948H15.0027V29.9931C12.5628 29.95 11.2533 28.7317 11.2533 26.2454C11.2533 23.7598 12.5628 22.541 15.0027 22.4984V22.496H44.9973V22.4984C47.4372 22.541 48.7466 23.76 48.7466 26.2456ZM44.9973 31.8718V31.8697H15.0027V31.8721C12.5628 31.9147 11.2533 33.1335 11.2533 35.6198C11.2533 38.1061 12.5628 39.3237 15.0027 39.3668V39.3685H44.9973V39.3661C47.4372 39.3237 48.7466 38.1054 48.7466 35.6191C48.7466 33.1328 47.4372 31.9145 44.9973 31.8718ZM54.3707 11.2524V11.2502C51.9313 11.2934 50.6213 12.5117 50.6213 14.998V35.6191C50.6213 38.1054 51.9313 39.323 54.3707 39.3661V39.3624C58.0303 39.2337 59.995 35.5785 59.995 28.1203V18.7469C59.995 13.775 58.0303 11.3386 54.3709 11.2521M5.62903 11.25V11.2524C1.96987 11.3384 0.00496674 13.7747 0.00496674 18.7469V28.1203C0.00496674 35.5785 1.96964 39.2333 5.62903 39.3621V39.3661C8.06894 39.3235 9.37841 38.1052 9.37841 35.6191V14.9975C9.37841 12.5114 8.06894 11.2931 5.62903 11.25ZM54.3709 9.37344C54.3709 3.15815 51.0966 0.112481 44.9975 0.00492106V0H15.0025V0.00492106C8.90388 0.112716 5.62903 3.15815 5.62903 9.37368V9.37673C9.28866 9.44117 11.2533 11.2685 11.2533 14.9977C11.2533 18.727 13.218 20.5539 16.8774 20.6185V20.6216H43.123V20.6188C46.782 20.5543 48.7466 18.727 48.7466 14.998C48.7466 11.269 50.7113 9.4414 54.3707 9.37696L54.3709 9.37344Z" fill="#FA0808"/>
</g>
</g>
<defs>
<filter id="filter0_i_194_408" x="0.00496674" y="0" width="59.99" height="43.3685" filterUnits="userSpaceOnUse" color-interpolation-filters="sRGB">
<feFlood flood-opacity="0" result="BackgroundImageFix"/>
<feBlend mode="normal" in="SourceGraphic" in2="BackgroundImageFix" result="shape"/>
<feColorMatrix in="SourceAlpha" type="matrix" values="0 0 0 0 0 0 0 0 0 0 0 0 0 0 0 0 0 0 127 0" result="hardAlpha"/>
<feOffset dy="4"/>
<feGaussianBlur stdDeviation="8"/>
<feComposite in2="hardAlpha" operator="arithmetic" k2="-1" k3="1"/>
<feColorMatrix type="matrix" values="0 0 0 0 0 0 0 0 0 0 0 0 0 0 0 0 0 0 0.1 0"/>
<feBlend mode="normal" in2="shape" result="effect1_innerShadow_194_408"/>
</filter>
<clipPath id="clip0_194_408">
<rect width="60" height="39.3685" fill="white"/>
</clipPath>
</defs>
</svg>
